<svg xmlns="http://www.w3.org/2000/svg"  viewBox="0 0 48 48" width="48px" height="48px"><path d="M 45.478516 2.0019531 A 1.50015 1.50015 0 0 0 44.466797 2.4140625 L 19.1875 26.470703 A 1.50015 1.50015 0 0 0 21.001953 28.839844 L 32.992188 21.552734 C 33.316249 21.355772 33.655366 21.494304 33.744141 21.857422 C 33.979387 22.819792 34.059634 23.844952 33.955078 24.912109 C 33.556715 28.979335 30.303016 32.369647 26.257812 32.914062 C 25.412734 33.027594 24.588395 33.014335 23.777344 32.904297 A 1.50015 1.50015 0 0 0 22.728516 33.152344 L 16.546875 37.390625 A 1.50015 1.50015 0 0 0 16.703125 39.958984 C 19.854475 41.60113 23.561661 42.352871 27.451172 41.837891 C 35.468149 40.776177 41.864728 34.315656 42.857422 26.291016 C 43.193632 23.577553 42.919352 20.949986 42.154297 18.542969 C 42.154297 18.542969 42.15625 18.542969 42.15625 18.542969 C 42.15485 18.537969 42.153238 18.526583 42.148438 18.507812 C 42.138838 18.470273 42.122576 18.405545 42.103516 18.316406 C 42.065396 18.138129 42.014106 17.859356 41.970703 17.496094 C 41.883893 16.769569 41.828973 15.703046 41.974609 14.400391 C 42.265893 11.795081 43.332906 8.2551391 46.628906 4.4882812 A 1.50015 1.50015 0 0 0 45.478516 2.0019531 z M 25.238281 6.0039062 C 24.393272 5.9917317 23.535539 6.0372911 22.667969 6.1464844 C 14.403727 7.1877176 7.8592909 13.977043 7.0820312 22.265625 C 6.8777485 24.447539 7.0636132 26.567237 7.5820312 28.554688 A 1.50015 1.50015 0 0 0 7.5820312 28.556641 C 8.1890481 30.882666 7.9626889 33.379324 6.9980469 35.617188 C 6.0648658 37.778739 4.4078171 40.471089 1.4394531 43.439453 A 1.50015 1.50015 0 0 0 3.5371094 45.583984 L 3.5605469 45.560547 L 17.931641 31.824219 A 1.50015 1.50015 0 0 0 18.1875 29.976562 L 18.050781 29.744141 A 1.50015 1.50015 0 0 0 17.935547 29.576172 C 16.721815 28.041638 16 26.114631 16 24 C 16 19.011657 20.011657 15 25 15 C 24.915 15 24.94998 15.005859 25.117188 15.005859 A 1.50015 1.50015 0 0 0 25.964844 14.742188 L 32.603516 10.189453 A 1.50015 1.50015 0 0 0 32.369141 7.5839844 C 30.188547 6.6036575 27.773309 6.0404298 25.238281 6.0039062 z M 24.414062 9.0273438 C 25.766446 9.0055551 27.064097 9.194698 28.324219 9.4863281 L 24.517578 12.097656 C 18.142971 12.36649 13 17.56125 13 24 C 13 26.404682 13.715624 28.653402 14.939453 30.535156 L 10.1875 35.076172 C 10.874825 32.708466 11.118355 30.22069 10.486328 27.798828 C 10.054746 26.144279 9.8966425 24.379008 10.068359 22.544922 C 10.713941 15.670366 16.195849 9.9857333 23.042969 9.1230469 C 23.506648 9.0646877 23.963268 9.0346066 24.414062 9.0273438 z M 39.818359 10.978516 C 39.522609 12.031188 39.094823 13.165877 38.994141 14.066406 C 38.819283 15.630376 38.881919 16.930259 38.992188 17.853516 C 39.047348 18.315144 39.114087 18.682226 39.169922 18.943359 C 39.197842 19.073926 39.222758 19.178266 39.242188 19.253906 C 39.251888 19.291726 39.259055 19.322033 39.265625 19.345703 C 39.272225 19.369363 39.279297 19.392578 39.279297 19.392578 L 39.289062 19.423828 C 39.932203 21.434094 40.165155 23.627401 39.880859 25.921875 C 39.057553 32.577235 33.703663 37.982995 27.056641 38.863281 C 24.786384 39.163868 22.681827 38.806781 20.685547 38.191406 L 24.056641 35.878906 C 24.903442 35.950006 25.758909 36.007546 26.658203 35.886719 C 32.109 35.153134 36.405769 30.673853 36.941406 25.205078 C 37.078851 23.802236 36.972956 22.432161 36.658203 21.144531 C 36.104977 18.881648 33.419531 17.781244 31.433594 18.988281 L 31.34375 19.042969 L 39.818359 10.978516 z"/></svg>