<svg xmlns="http://www.w3.org/2000/svg" xmlns:xlink="http://www.w3.org/1999/xlink" viewBox="0,0,256,256" width="50px" height="50px" fill-rule="nonzero"><g fill="#fffdfd" fill-rule="nonzero" stroke="none" stroke-width="1" stroke-linecap="butt" stroke-linejoin="miter" stroke-miterlimit="10" stroke-dasharray="" stroke-dashoffset="0" font-family="none" font-weight="none" font-size="none" text-anchor="none" style="mix-blend-mode: normal"><g transform="scale(5.12,5.12)"><path d="M47.6582,2.05664c-0.24312,0.00962 -0.48347,0.10652 -0.66797,0.29102l-6.10937,6.11719c-0.047,0.032 -0.09181,0.07033 -0.13281,0.11133l-21.60156,21.72852c-0.369,0.371 -0.39083,0.96142 -0.04883,1.35742c0.343,0.396 0.92956,0.46239 1.35156,0.15039l15.08008,-11.14453c0.128,-0.095 0.28883,-0.1278 0.42383,-0.0918c0.148,0.041 0.19203,0.14955 0.20703,0.18555c1.781,4.296 0.82169,9.18794 -2.44531,12.46094c-2.893,2.896 -6.8653,3.96374 -10.9043,2.92773c-0.235,-0.06 -0.48903,-0.03097 -0.70703,0.08203l-5.30859,2.75195c-0.327,0.169 -0.53502,0.50505 -0.54102,0.87305c-0.006,0.368 0.19172,0.70867 0.51172,0.88867c2.853,1.595 5.94133,2.37305 8.98633,2.37305c4.621,0 9.1428,-1.79305 12.5918,-5.24805c4.4,-4.404 6.19255,-10.6438 4.81055,-16.7168c-0.004,-0.04 -0.01149,-0.08109 -0.02148,-0.12109c-1.756,-7.564 0.37302,-10.49573 5.04102,-16.92773l0.33398,-0.46484c0.306,-0.423 0.23389,-1.00966 -0.16211,-1.34766c-0.198,-0.168 -0.44438,-0.24595 -0.6875,-0.23633zM25.99609,7.13672c-4.78937,-0.09693 -9.51855,1.73983 -13.06055,5.2832c-5.066,5.073 -6.64378,12.92602 -3.92578,19.54102c1.684,4.098 -1.05356,6.97455 -4.22656,10.31055c-1.132,1.189 -2.30272,2.42023 -3.26172,3.74023c-0.299,0.414 -0.24133,0.98708 0.13867,1.33008c0.19,0.172 0.42992,0.25781 0.66992,0.25781c0.238,0 0.47797,-0.08391 0.66797,-0.25391l14.33789,-12.82031c0.147,-0.109 0.26398,-0.25659 0.33398,-0.43359c0.153,-0.379 0.05867,-0.8137 -0.23633,-1.0957c-2.685,-2.567 -3.27583,-5.51225 -3.29883,-7.53125c-0.035,-3.106 1.22022,-6.16839 3.44922,-8.40039c2.497,-2.502 6.25259,-3.73298 9.80859,-3.20898c0.203,0.028 0.41747,-0.00456 0.60547,-0.10156l5.69141,-2.95312c0.335,-0.173 0.54306,-0.52239 0.53906,-0.90039c-0.004,-0.378 -0.2225,-0.72072 -0.5625,-0.88672c-0.397,-0.193 -0.80898,-0.37739 -1.20898,-0.52539c-2.09594,-0.86406 -4.28395,-1.3075 -6.46094,-1.35156z"></path></g></g></svg>